<?xml version="1.0" encoding="UTF-8"?>
<!DOCTYPE svg PUBLIC "-//W3C//DTD SVG 1.1//EN" "http://www.w3.org/Graphics/SVG/1.1/DTD/svg11.dtd">
<!-- Creator: CorelDRAW -->
<svg xmlns="http://www.w3.org/2000/svg" xml:space="preserve" width="6.72in" height="6.72in" style="shape-rendering:geometricPrecision; text-rendering:geometricPrecision; image-rendering:optimizeQuality; fill-rule:evenodd; clip-rule:evenodd"
viewBox="0 0 6.72 6.72"
 xmlns:xlink="http://www.w3.org/1999/xlink">
 <defs>
  <style type="text/css">
   <![CDATA[
    .fil5 {fill:none}
    .fil4 {fill:url(#id0);fill-rule:nonzero}
    .fil1 {fill:url(#id1);fill-rule:nonzero}
    .fil2 {fill:url(#id2);fill-rule:nonzero}
    .fil0 {fill:url(#id3);fill-rule:nonzero}
    .fil3 {fill:url(#id4);fill-rule:nonzero}
   ]]>
  </style>
  <linearGradient id="id0" gradientUnits="userSpaceOnUse" x1="2.58075" y1="5.42832" x2="3.3647" y2="5.42832">
   <stop offset="0" style="stop-color:#ffff"/>
   <stop offset="1" style="stop-color:#ffff"/>
  </linearGradient>
  <linearGradient id="id1" gradientUnits="userSpaceOnUse" xlink:href="#id0" x1="1.12511" y1="4.38836" x2="2.08652" y2="4.38836">
  </linearGradient>
  <linearGradient id="id2" gradientUnits="userSpaceOnUse" xlink:href="#id0" x1="4.63347" y1="4.38836" x2="5.59488" y2="4.38836">
  </linearGradient>
  <linearGradient id="id3" gradientUnits="userSpaceOnUse" xlink:href="#id0" x1="1.12511" y1="2.76775" x2="5.59488" y2="2.76775">
  </linearGradient>
  <linearGradient id="id4" gradientUnits="userSpaceOnUse" xlink:href="#id0" x1="3.15737" y1="5.7262" x2="5.54839" y2="5.7262">
  </linearGradient>
 </defs>
 <g id="Layer_x0020_1">
  <metadata id="CorelCorpID_0Corel-Layer"/>
  <path class="fil0" d="M1.12511 4.6555c0,0.0441811 0.0358189,0.08 0.08,0.08 0.0441811,0 0.08,-0.0358189 0.08,-0.08l0 -1.62061c0,-0.570508 0.233449,-1.08922 0.609559,-1.46532 0.376106,-0.37611 0.894815,-0.609559 1.46532,-0.609559l3.93701e-006 0c0.570508,0 1.08922,0.233453 1.46532,0.609559 0.376106,0.376106 0.609559,0.894815 0.609559,1.46532l0 1.62061c0,0.0441811 0.0358189,0.08 0.08,0.08 0.0441811,0 0.08,-0.0358189 0.08,-0.08l0 -1.62061c0,-0.614677 -0.251406,-1.17342 -0.656433,-1.57845 -0.405028,-0.405028 -0.963772,-0.656433 -1.57845,-0.656433l-3.93701e-006 0c-0.614677,0 -1.17342,0.251402 -1.57845,0.656433 -0.405031,0.405028 -0.656433,0.963772 -0.656433,1.57845l0 1.62061z"/>
  <path class="fil1" d="M1.47866 3.54258l0.254315 0c0.0973071,0 0.18572,0.039752 0.249756,0.103791 0.0640354,0.0640354 0.103791,0.152445 0.103791,0.249752l0 0.984484c0,0.0973071 -0.039752,0.185717 -0.103791,0.249752 -0.0640354,0.0640354 -0.152445,0.103787 -0.249756,0.103787l-0.254315 0c-0.0973071,0 -0.185717,-0.039752 -0.249752,-0.103787 -0.0640394,-0.0640354 -0.103791,-0.152445 -0.103791,-0.249752l0 -0.984484c0,-0.0973071 0.039752,-0.185717 0.103791,-0.249752 0.0640354,-0.0640354 0.152445,-0.103791 0.249752,-0.103791zm0.254315 0.16l-0.254315 0c-0.0531378,0 -0.101512,0.0218031 -0.136626,0.0569173 -0.0351181,0.0351142 -0.0569173,0.0834882 -0.0569173,0.136626l0 0.984484c0,0.0531378 0.0217992,0.101512 0.0569173,0.136626 0.0351142,0.0351142 0.0834882,0.0569134 0.136626,0.0569134l0.254315 0c0.0531417,0 0.101516,-0.0217992 0.13663,-0.0569134 0.0351181,-0.0351142 0.0569173,-0.0834882 0.0569173,-0.136626l0 -0.984484c0,-0.0531378 -0.0218031,-0.101512 -0.0569173,-0.136626 -0.0351142,-0.0351181 -0.0834882,-0.0569173 -0.13663,-0.0569173z"/>
  <path class="fil2" d="M4.98702 3.54258l0.254319 0c0.0973071,0 0.18572,0.039752 0.249756,0.103791 0.0640354,0.0640354 0.103791,0.152445 0.103791,0.249752l0 0.984484c0,0.0973071 -0.039752,0.185717 -0.103791,0.249752 -0.0640354,0.0640354 -0.152445,0.103787 -0.249756,0.103787l-0.254319 0c-0.0973071,0 -0.185717,-0.039752 -0.249752,-0.103791 -0.0640354,-0.0640354 -0.103791,-0.152441 -0.103791,-0.249748l0 -0.984484c0,-0.0973071 0.0397559,-0.185717 0.103791,-0.249752 0.0640354,-0.0640354 0.152445,-0.103791 0.249752,-0.103791zm0.254319 0.16l-0.254319 0c-0.0531378,0 -0.101512,0.0218031 -0.136626,0.0569173 -0.0351142,0.0351142 -0.0569173,0.0834882 -0.0569173,0.136626l0 0.984484c0,0.0531378 0.0218031,0.101508 0.0569173,0.136622 0.0351142,0.0351181 0.0834882,0.0569173 0.136626,0.0569173l0.254319 0c0.0531417,0 0.101516,-0.0217992 0.13663,-0.0569134 0.0351181,-0.0351142 0.0569173,-0.0834882 0.0569173,-0.136626l0 -0.984484c0,-0.0531378 -0.0218031,-0.101512 -0.0569173,-0.136626 -0.0351142,-0.0351181 -0.0834921,-0.0569173 -0.13663,-0.0569173z"/>
  <path class="fil3" d="M5.52302 5.0956c0.0253701,-0.0360669 0.0166929,-0.085878 -0.019374,-0.111248 -0.0360669,-0.0253701 -0.085878,-0.0166929 -0.111248,0.019374 -0.00255906,0.00362598 -0.88087,1.27352 -2.10172,0.51239 -0.0374488,-0.0232992 -0.0867008,-0.0118268 -0.11,0.025622 -0.0232992,0.0374488 -0.0118268,0.0867008 0.025622,0.11 1.35004,0.841669 2.31391,-0.552157 2.31672,-0.556138z"/>
  <path class="fil4" d="M3.33321 5.57769l-0.0509921 0.0883189c-0.0261063,0.0452165 -0.0682402,0.0756181 -0.115075,0.0881654 -0.0467717,0.0125354 -0.0984803,0.00722441 -0.143823,-0.0189528l-0.341783 -0.197331 -9.44882e-005 0.000165354c-0.00290551,-0.00167717 -0.00566142,-0.00350787 -0.00827165,-0.00547638 -0.0407283,-0.0264213 -0.068185,-0.0661102 -0.0798937,-0.109815 -0.0125276,-0.0467362 -0.00723622,-0.0984094 0.0189016,-0.143732l-0.000165354 -9.44882e-005c0.00124803,-0.00216142 0.00258661,-0.00424016 0.004,-0.00624016l0.0472087 -0.0817677 0.069063 0.039689 -0.0692835 -0.04c0.00120472,-0.00208661 0.00249213,-0.00408661 0.00385039,-0.00602362 0.0262835,-0.0418898 0.0667205,-0.0701614 0.111445,-0.0821417 0.0467717,-0.0125276 0.0984803,-0.00722047 0.143823,0.0189567l0.341783 0.197331 9.44882e-005 -0.000165354c0.00290551,0.00167717 0.00566142,0.00350787 0.00827165,0.00547638 0.0407244,0.0264213 0.068185,0.0661102 0.0798937,0.109815 0.0125354,0.0467677 0.00722441,0.0984803 -0.0189528,0.143823zm-0.189118 0.0083189l0.0509921 -0.0883189c0.00398425,-0.00689764 0.00472047,-0.0150354 0.00270079,-0.0225709 -0.00171654,-0.00640157 -0.00529921,-0.0121575 -0.010437,-0.0161496 -0.00112598,-0.000582677 -0.00224409,-0.00118898 -0.00335039,-0.00182677l0.04 -0.0692835 -0.04 0.069063 -0.341878 -0.197386c-0.00689764,-0.00398425 -0.0150354,-0.00472047 -0.0225709,-0.00270472 -0.00659843,0.00176378 -0.0125709,0.0056811 -0.0166693,0.0114094 -0.000425197,0.000795276 -0.000858268,0.00159055 -0.00131102,0.00237795l-0.000165354 -9.44882e-005 -5.51181e-005 9.44882e-005 -0.000133858 -7.87402e-005 -0.0472362 0.081815c-0.00102756,0.00222441 -0.00215748,0.0044252 -0.00340551,0.00659055l-0.0692795 -0.0400039 0.069063 0.04c-0.00398031,0.0068937 -0.00472047,0.0150354 -0.00270079,0.0225709 0.00171654,0.00640157 0.00529921,0.0121575 0.010437,0.0161496 0.00112598,0.000582677 0.00224409,0.00118898 0.00335039,0.00182677l-0.04 0.0692835 0.04 -0.069063 0.341878 0.197386c0.00689764,0.00398425 0.0150354,0.00472047 0.0225709,0.00270079 0.00747244,-0.002 0.0141457,-0.00676772 0.0182008,-0.0137874z"/>
 </g>
 <rect class="fil5" width="6.72" height="6.72"/>
</svg>
